#!OML:ASF I:\Random Stuff\random\construction\7_22_03\Session 2\subj1.ASF
:FULLY-SPECIFIED
:DEGREES
424
root -2.00729 17.8391 5.85836 7.4679 65.1032 -5.9302
lowerback 6.56951 0.57257 1.99829
upperback 1.05118 0.929297 0.394534
thorax -2.57344 0.453247 -0.796181
lowerneck -21.1732 -0.0815471 0.435192
upperneck 42.7112 0.188985 1.97309
head 20.4905 0.821313 1.11672
rclavicle -1.85242e-014 1.78906e-014
rhumerus -18.4255 19.5136 -64.0161
rradius 70.5938
rwrist -28.0182
rhand -12.7064 5.74025
rfingers 7.12502
rthumb 13.3762 -23.8104
lclavicle -1.85242e-014 1.78906e-014
lhumerus -11.6419 -22.2045 73.2152
lradius 83.0912
lwrist 49.9495
lhand -5.75755 77.0612
lfingers 7.12502
lthumb -159.935 73.9549
rfemur -18.6156 6.78067 20.7245
rtibia 15.9586
rfoot -6.83809 -10.1346
rtoes -20.1919
lfemur -17.7239 -16.4616 -9.94388
ltibia 20.0433
lfoot -13.7811 19.782
ltoes -31.1186
425
root -1.99876 17.8391 5.8462 7.32631 64.9822 -5.9513
lowerback 6.38429 0.504258 1.93048
upperback 0.970694 0.828656 0.384026
thorax -2.55659 0.402807 -0.758647
lowerneck -21.3312 -0.132682 0.438864
upperneck 42.7192 0.107714 1.92839
head 20.5448 0.781516 1.07572
rclavicle 3.30728e-014 1.30701e-014
rhumerus -18.116 19.0877 -64.1703
rradius 70.0721
rwrist -27.8478
rhand -10.9555 5.88031
rfingers 7.12502
rthumb 15.0633 -23.5517
lclavicle 3.30728e-014 1.30701e-014
lhumerus -11.6528 -21.6361 73.02
lradius 82.8907
lwrist 50.2271
lhand -5.17737 77.0316
lfingers 7.12502
lthumb -159.377 74.044
rfemur -18.507 6.83427 20.6981
rtibia 16.0029
rfoot -6.84517 -10.1185
rtoes -20.5056
lfemur -17.5222 -16.4115 -10.0519
ltibia 20.0103
lfoot -13.7854 19.8397
ltoes -31.1722
426
root -1.99252 17.8392 5.83201 7.34301 64.9185 -5.77197
lowerback 6.24468 0.421014 1.77906
upperback 0.87809 0.703946 0.373292
thorax -2.57906 0.340748 -0.673382
lowerneck -21.4447 -0.156647 0.381387
upperneck 42.6785 0.0628375 1.95638
head 20.5514 0.755206 1.08887
rclavicle -3.66261e-014 1.16289e-014
rhumerus -17.8748 18.5721 -64.3188
rradius 69.5966
rwrist -27.1107
rhand -9.13221 6.2046
rfingers 7.12502
rthumb 16.8192 -23.087
lclavicle -3.66261e-014 1.16289e-014
lhumerus -11.7496 -20.9532 72.9511
lradius 82.7235
lwrist 50.4534
lhand -5.04639 76.8552
lfingers 7.12502
lthumb -159.251 74.2341
rfemur -18.3956 6.87293 20.5757
rtibia 16.0891
rfoot -6.82904 -10.1379
rtoes -20.9203
lfemur -17.3098 -16.3005 -10.266
ltibia 19.9412
lfoot -13.6763 19.7721
ltoes -31.6841
427
root -1.98582 17.8389 5.81742 7.41974 64.8299 -5.52011
lowerback 6.09232 0.443491 1.66224
upperback 0.779875 0.721996 0.353968
thorax -2.59584 0.349482 -0.628206
lowerneck -21.5239 -0.301027 0.173389
upperneck 42.5726 -0.140029 2.05971
head 20.5065 0.655638 1.1292
rclavicle -2.48481e-016 -4.77083e-015
rhumerus -17.8292 17.7021 -64.3064
rradius 69.1674
rwrist -25.998
rhand -7.0035 6.55245
rfingers 7.12502
rthumb 18.8675 -22.5525
lclavicle -2.48481e-016 -4.77083e-015
lhumerus -11.9125 -20.3763 73.0941
lradius 82.6614
lwrist 50.5275
lhand -5.06315 76.7501
lfingers 7.12502
lthumb -159.267 74.3374
rfemur -18.2967 6.94968 20.4088
rtibia 16.2056
rfoot -6.85168 -10.1779
rtoes -21.1083
lfemur -17.0607 -16.114 -10.5309
ltibia 19.837
lfoot -13.6165 19.6261
ltoes -31.7949
428
root -1.97855 17.838 5.80219 7.45757 64.6828 -5.29884
lowerback 5.92349 0.498122 1.55873
upperback 0.678448 0.783 0.311367
thorax -2.60531 0.379472 -0.617679
lowerneck -21.6803 -0.422046 0.154148
upperneck 42.636 -0.321077 2.03764
head 20.601 0.581785 1.08369
rclavicle -4.03781e-014 6.95746e-016
rhumerus -17.7843 16.5199 -64.3116
rradius 68.5589
rwrist -24.7492
rhand -4.3562 7.1289
rfingers 7.12502
rthumb 21.4119 -21.7079
lclavicle -4.03781e-014 6.95746e-016
lhumerus -12.1096 -19.8709 73.2076
lradius 82.5481
lwrist 50.3618
lhand -4.86828 77.1544
lfingers 7.12502
lthumb -159.08 73.9537
rfemur -18.1825 6.99313 20.2649
rtibia 16.3036
rfoot -6.92279 -10.1239
rtoes -21.1188
lfemur -16.7724 -15.879 -10.7976
ltibia 19.7374
lfoot -13.6155 19.4676
ltoes -31.5072
429
root -1.97203 17.8373 5.78352 7.40345 64.5397 -5.17406
lowerback 5.78553 0.493131 1.4709
upperback 0.592753 0.766849 0.274185
thorax -2.61737 0.371184 -0.604368
lowerneck -21.6747 -0.496096 0.0363215
upperneck 42.5398 -0.462232 2.1706
head 20.5376 0.525111 1.13641
rclavicle -3.63527e-014 1.83876e-014
rhumerus -17.5917 15.2471 -64.3505
rradius 67.7671
rwrist -23.6595
rhand -1.44077 7.68618
rfingers 7.12502
rthumb 24.2097 -20.8057
lclavicle -3.63527e-014 1.83876e-014
lhumerus -12.2925 -19.2972 73.1968
lradius 82.3364
lwrist 49.846
lhand -5.14103 77.4148
lfingers 7.12502
lthumb -159.342 73.6645
rfemur -18.0443 6.95717 20.172
rtibia 16.357
rfoot -7.00149 -9.98554
rtoes -21.1825
lfemur -16.5016 -15.7835 -11.0065
ltibia 19.6652
lfoot -13.6358 19.4385
ltoes -31.1383
430
root -1.96483 17.8368 5.76235 7.26286 64.4344 -5.17833
lowerback 5.63909 0.498061 1.47799
upperback 0.519468 0.770636 0.258479
thorax -2.6105 0.372251 -0.623623
lowerneck -22.0635 -0.574024 0.116897
upperneck 42.6775 -0.550514 1.9824
head 20.7497 0.478051 1.01244
rclavicle 4.7758e-014 -1.41137e-014
rhumerus -17.4542 13.8602 -64.2857
rradius 66.9197
rwrist -22.8371
rhand 1.10852 8.00635
rfingers 7.12502
rthumb 26.6517 -20.1375
lclavicle 4.7758e-014 -1.41137e-014
lhumerus -12.4185 -18.8271 73.1871
lradius 82.0542
lwrist 49.0354
lhand -5.93014 77.2494
lfingers 7.12502
lthumb -160.1 73.7494
rfemur -17.9125 6.98191 20.1139
rtibia 16.3671
rfoot -7.06552 -9.95015
rtoes -21.114
lfemur -16.2992 -15.922 -11.1198
ltibia 19.6217
lfoot -13.7357 19.6106
ltoes -30.5963
